<svg id="Layer_1" data-name="Layer 1" xmlns="http://www.w3.org/2000/svg" viewBox="0 0 249.57 45.63"><defs><style>.cls-1{fill:#fff;}</style></defs><path class="cls-1" d="M301.11,300.89h4.61V296.4c0-2,0-5,1.49-6.91a8.2,8.2,0,0,1,7.16-3.36c5.83,0,8.28.83,8.28.83l-1.16,6.84a15.43,15.43,0,0,0-3.71-.56c-1.8,0-3.41.64-3.41,2.44v5.21h7.36l-.51,6.68h-6.85v23.2h-8.65v-23.2h-4.61Z" transform="translate(-301.11 -285.28)"/><path class="cls-1" d="M542.76,292.36H512.67s-7.92,0-7.92,7.91v16.42s0,7.91,7.92,7.91h30.09s7.92,0,7.92-7.91V300.27S550.68,292.36,542.76,292.36Zm-21.16,25V299.67l15,8.83Z" transform="translate(-301.11 -285.28)"/><path class="cls-1" d="M412,289.39c6.09,0,6.81,0,9.22.14a12.64,12.64,0,0,1,4.23.78A7.13,7.13,0,0,1,428,292a7,7,0,0,1,1.7,2.62,12.39,12.39,0,0,1,.79,4.24c.11,2.4.13,3.12.13,9.22s0,6.81-.13,9.22a12.32,12.32,0,0,1-.79,4.23,6.87,6.87,0,0,1-1.7,2.62,7,7,0,0,1-2.63,1.71,12.57,12.57,0,0,1-4.23.79c-2.41.11-3.13.13-9.22.13s-6.81,0-9.22-.13a12.71,12.71,0,0,1-4.24-.79,7.61,7.61,0,0,1-4.33-4.33,12.64,12.64,0,0,1-.78-4.23c-.11-2.41-.13-3.13-.13-9.22s0-6.82.13-9.22a12.72,12.72,0,0,1,.78-4.24,7.61,7.61,0,0,1,4.33-4.33,12.78,12.78,0,0,1,4.24-.78c2.41-.11,3.13-.14,9.22-.14m0-4.11c-6.2,0-7,0-9.41.14a16.88,16.88,0,0,0-5.54,1.06,11.13,11.13,0,0,0-4,2.63,11.4,11.4,0,0,0-2.63,4,16.83,16.83,0,0,0-1.06,5.54c-.11,2.43-.14,3.21-.14,9.41s0,7,.14,9.4a16.83,16.83,0,0,0,1.06,5.54,11.4,11.4,0,0,0,2.63,4,11.13,11.13,0,0,0,4,2.63,16.62,16.62,0,0,0,5.54,1.06c2.44.11,3.21.14,9.41.14s7,0,9.4-.14a16.57,16.57,0,0,0,5.54-1.06,11.65,11.65,0,0,0,6.67-6.67,16.8,16.8,0,0,0,1.07-5.54c.11-2.43.13-3.21.13-9.4s0-7-.13-9.41a16.8,16.8,0,0,0-1.07-5.54,11.65,11.65,0,0,0-6.67-6.67,16.83,16.83,0,0,0-5.54-1.06c-2.43-.11-3.21-.14-9.4-.14" transform="translate(-301.11 -285.28)"/><path class="cls-1" d="M412,296.38a11.72,11.72,0,1,0,11.71,11.72A11.72,11.72,0,0,0,412,296.38m0,19.32a7.61,7.61,0,1,1,7.6-7.6,7.61,7.61,0,0,1-7.6,7.6" transform="translate(-301.11 -285.28)"/><path class="cls-1" d="M426.87,295.92a2.74,2.74,0,1,1-2.73-2.74,2.74,2.74,0,0,1,2.73,2.74" transform="translate(-301.11 -285.28)"/></svg>