<svg id="Layer_1" data-name="Layer 1" xmlns="http://www.w3.org/2000/svg" viewBox="0 0 176.81 47.36"><defs><style>.cls-1{fill:#fff;}</style></defs><path class="cls-1" d="M18.8,38.68v2h3.39v2.62H18.8v4.66H15.72V36.06h6.81v2.62Z" transform="translate(-12.17 -0.97)"/><path class="cls-1" d="M33.73,45.32h3.7v2.62H30.64V36.06h3.09Z" transform="translate(-12.17 -0.97)"/><path class="cls-1" d="M42.08,36.06h3.7L48,39.29l2.22-3.23h3.7l-4.38,6.18v5.7H46.46v-5.7Z" transform="translate(-12.17 -0.97)"/><path class="cls-1" d="M75.9,38.68v2h3.39v2.62H75.9v4.66H72.82V36.06h6.82v2.62Z" transform="translate(-12.17 -0.97)"/><path class="cls-1" d="M90.83,47.94H87.75V36.06h3.08Z" transform="translate(-12.17 -0.97)"/><path class="cls-1" d="M105.76,39.12a3.27,3.27,0,0,0-2.05-.79c-.56,0-1.32.33-1.32,1s.84,1,1.37,1.14l.79.23c1.65.49,2.93,1.33,2.93,3.25a4,4,0,0,1-1.23,3.19,5.19,5.19,0,0,1-3.37,1.12,7.3,7.3,0,0,1-4.17-1.35L100,44.41a4.21,4.21,0,0,0,2.74,1.23c.72,0,1.5-.36,1.5-1.2s-1.22-1.16-1.88-1.35c-1.94-.55-3.21-1.06-3.21-3.36a3.84,3.84,0,0,1,4.09-4,8.24,8.24,0,0,1,3.72,1Z" transform="translate(-12.17 -0.97)"/><path class="cls-1" d="M122.88,40.65V36.06H126V47.94h-3.08V43.07h-4.46v4.87h-3.08V36.06h3.08v4.59Z" transform="translate(-12.17 -0.97)"/><path class="cls-1" d="M137.46,47.94h-3.09V36.06h3.09Z" transform="translate(-12.17 -0.97)"/><path class="cls-1" d="M145.87,36.06H149l5.65,7.26h0V36.06h3.09V47.94h-3.09L149,40.66h0v7.28h-3.09Z" transform="translate(-12.17 -0.97)"/><path class="cls-1" d="M177.35,41.31A7.64,7.64,0,0,1,176.14,46a5.76,5.76,0,0,1-4.9,2.33,6,6,0,0,1-6.33-6.27,6.06,6.06,0,0,1,6.44-6.39A5.51,5.51,0,0,1,176.7,39l-2.93,1.23a2.68,2.68,0,0,0-2.56-1.89c-2,0-3.09,1.94-3.09,3.75s1.1,3.71,3.13,3.71a2.24,2.24,0,0,0,2.49-2.06h-2.52V41.31Z" transform="translate(-12.17 -0.97)"/><path class="cls-1" d="M47.41,32.22V22.29c0-2.31.16-3.84,2.06-3.84,1.66,0,1.81,1.36,1.81,3.28V32.18c5.6-.3,8.66-1.62,9.84-2.51V18.28c0-4.05-1.4-8.14-7.08-8.14a7.49,7.49,0,0,0-6.78,4.73l-.1-.09.25-4.17H37.57V30.09C38.36,30.51,41.54,32,47.41,32.22Z" transform="translate(-12.17 -0.97)"/><path class="cls-1" d="M97.16,21.65c0,2.64.48,6.44,2.35,9,1.48.71,4.36,1.38,10.23,1.43a8.38,8.38,0,0,0,2.33-2.8l.1.08-.32,2.69c5.58-.22,8.27-1.64,9.71-2.94V10.61h-10l.4,3.45-.1.08a7.06,7.06,0,0,0-6.37-4C98.72,10.14,97.16,17.21,97.16,21.65Zm10.4-2.39c.3-1.24.85-2.26,2-2.26s1.66.85,1.91,1.83a11.33,11.33,0,0,1,.2,2.73,12.57,12.57,0,0,1-.3,3.07c-.25,1.11-.85,2.05-2.11,2.05-1,0-1.45-.69-1.7-1.54a9.7,9.7,0,0,1-.31-2.56A16.45,16.45,0,0,1,107.56,19.26Z" transform="translate(-12.17 -0.97)"/><path class="cls-1" d="M141,30.21c1.63.88,4.56,1.91,9.39,1.91,4.47,0,6.55-.31,7.94-.84a9.38,9.38,0,0,0,3.76-5.8h-9.64a2.12,2.12,0,0,1-2.16,1.58c-2.06,0-2.31-2.13-2.31-3.45h14.46c0-3.54-.3-6.87-2.86-9.81-1.91-2.21-4.87-3.66-8.94-3.66-8.13,0-12.5,5.71-12.5,12.15A11.12,11.12,0,0,0,141,30.21Zm9.19-14c1.76,0,2.31,1.62,2.36,2.86H148C147.91,17.94,148.51,16.23,150.17,16.23Z" transform="translate(-12.17 -0.97)"/><path class="cls-1" d="M125.29,29a7.61,7.61,0,0,0,4.87,1.53c2.49,0,4-.5,5-1.29V17.3h3.27V10.61h-3.27V4h-9.84v6.61h-2.81V17.3h2.81Z" transform="translate(-12.17 -0.97)"/><path class="cls-1" d="M15.67,31.25a33.22,33.22,0,0,0,8.49.8c6.19,0,8.5-.71,9.64-1.23a12.33,12.33,0,0,0,3.07-8.58c0-6.51-3.86-12.1-12.35-12.1s-12.35,5.59-12.35,12.1A12.15,12.15,0,0,0,15.67,31.25Zm8.85-14.64c2.36,0,2.72,3.26,2.72,5.63s-.36,5.64-2.72,5.64-2.71-3.26-2.71-5.64S22.16,16.61,24.52,16.61Z" transform="translate(-12.17 -0.97)"/><path class="cls-1" d="M173.18,15l-.1-.09.55-4.3h-9.89V30a9.76,9.76,0,0,0,5.3,1.17,10.81,10.81,0,0,0,4.54-.81V24c0-2.34.46-5.33,4.12-5.33a9,9,0,0,1,2.76.81V10.14A7.38,7.38,0,0,0,173.18,15Z" transform="translate(-12.17 -0.97)"/><path class="cls-1" d="M84.56,30.18a10.35,10.35,0,0,1-3.12-.75,4,4,0,0,0-.85-.21,2.57,2.57,0,0,1,2-.21l.74.17c1.26.32,2.33.24,2.77-.78a1.48,1.48,0,0,0,0-1.25c-.54-1.17-2.47-1.79-2.49-1.79L83,25.1l-.46,0a1.91,1.91,0,0,0,1.13,2.22,2.45,2.45,0,0,1-2.26-1.83l-1.09-.53a3.82,3.82,0,0,0,.6,2.31C79.62,27,78.75,25,78.75,25c-.43.91.49,2.59.49,2.8A3.37,3.37,0,0,1,77,25.41c-.43,1,.54,3.57.54,3.57C75.68,28.33,75,25.9,75,25.9a4.86,4.86,0,0,1-.33,2.37,29.76,29.76,0,0,0-.75-3,1.6,1.6,0,0,1-.1-.63.86.86,0,0,1-.53-.51,56.69,56.69,0,0,1-9.93-2.4l2.12,8.35c1.55.85,5.29,2.06,13.3,2.06,7.28,0,12.7-.91,15-2.27L100.6,1h-10l-2.26,13c-.45,2.52-.52,5-.82,7h-.1c-.41-2.34-.71-4.64-1.16-7L83.66,1H74.87l-2.66,13c-.5,2.39-.55,4.73-.85,7.12h-.1c-.35-2.39-.38-4.73-.78-7.12L68.22,1H58.13l5,19.57a52.54,52.54,0,0,0,10.44,2.62.91.91,0,0,1,.55-.23l0-.05s4.21-6.1,7-6.37a2.32,2.32,0,0,1,1.7.25,3,3,0,0,1,1.07-.06,8.81,8.81,0,0,0-3.2,3.19,16.07,16.07,0,0,1,1.52-.83,4.76,4.76,0,0,1,2.15-.29l-1.83,1.41.91-.11a6,6,0,0,1-2,2.46,1.6,1.6,0,0,0,1.15-.19,3.84,3.84,0,0,1,3-.7,4.05,4.05,0,0,0-2.5,1.7,2.61,2.61,0,0,0,2.12.89c1.73-.06,2.27-.11,2.27-.11l-1.13.75s2.7.49,3.51,2.05c0,0-1.81-.69-3.78-1.23a3.35,3.35,0,0,1,.88,1.1,2.43,2.43,0,0,1-2.36,3.39Z" transform="translate(-12.17 -0.97)"/><path class="cls-1" d="M182.79,13.91V10.59h-1.27V10h3.19v.58h-1.27v3.32Zm2.36,0V10h.95l1,3.12L188,10H189v3.9h-.59V10.64l-1,3.27h-.59l-1-3.32v3.32Z" transform="translate(-12.17 -0.97)"/></svg>